<svg xmlns="http://www.w3.org/2000/svg" xmlns:xlink="http://www.w3.org/1999/xlink" width="16" height="16" viewBox="0 0 16 16"><defs><path id="wy5la" d="M1440.57 42h-13.14c-.48 0-1.43.95-1.43 1.44v13.13c0 .48.95 1.43 1.43 1.43h6.84v-6.08h-2.2v-2.2h2.2v-1.68c0-2.07 1.57-3.3 3.41-3.3.88 0 1.35.1 1.57.13v2.1h-1.56c-1 0-1.2.49-1.2 1.19v1.57h2.79l-.36 2.2h-2.42V58h4.07c.48 0 1.43-.95 1.43-1.43V43.44c0-.5-.95-1.44-1.43-1.44z"/></defs><g><g transform="translate(-1426 -42)"><use fill="#77797c" xlink:href="#wy5la"/></g></g></svg>