<svg xmlns="http://www.w3.org/2000/svg" xmlns:xlink="http://www.w3.org/1999/xlink" width="16" height="16" viewBox="0 0 16 16"><defs><path id="rysla" d="M1540.3 42.05a5.9 5.9 0 0 1 1.94.37c.53.2.97.48 1.42.92.44.45.72.9.92 1.42.2.5.33 1.09.37 1.94.04.85.05 1.13.05 3.3s0 2.44-.05 3.3a5.86 5.86 0 0 1-.37 1.94c-.2.53-.48.97-.92 1.42-.45.44-.9.72-1.42.92-.5.2-1.09.33-1.94.37-.85.04-1.13.05-3.3.05s-2.45 0-3.3-.05a5.9 5.9 0 0 1-1.94-.37c-.53-.2-.97-.48-1.42-.92a3.9 3.9 0 0 1-.92-1.42c-.2-.5-.33-1.09-.37-1.94a56.6 56.6 0 0 1-.05-3.3c0-2.17 0-2.45.05-3.3.04-.85.17-1.43.37-1.94.2-.53.48-.97.92-1.42.45-.44.9-.72 1.42-.92a5.9 5.9 0 0 1 1.94-.37c.85-.04 1.13-.05 3.3-.05s2.45.01 3.3.05zm-6.53 1.44c-.78.03-1.2.16-1.49.27-.37.15-.64.32-.92.6-.28.28-.45.55-.6.92-.1.28-.24.7-.27 1.49-.04.84-.05 1.1-.05 3.23 0 2.14.01 2.39.05 3.23.03.78.16 1.2.27 1.49.15.37.32.64.6.92.28.28.55.45.92.6.28.1.7.24 1.49.27.84.04 1.1.05 3.23.05 2.14 0 2.39 0 3.23-.05.78-.03 1.2-.16 1.49-.27.37-.15.64-.32.92-.6.28-.28.45-.55.6-.92.1-.28.24-.7.27-1.49.04-.84.05-1.1.05-3.23 0-2.14-.01-2.39-.05-3.23a4.42 4.42 0 0 0-.27-1.49 2.47 2.47 0 0 0-.6-.92 2.46 2.46 0 0 0-.92-.6c-.28-.1-.7-.24-1.49-.27-.84-.04-1.1-.05-3.23-.05-2.14 0-2.39.01-3.23.05zm7.34 6.51a4.1 4.1 0 1 1-8.22 0 4.1 4.1 0 0 1 8.22 0zm-1.44 0a2.67 2.67 0 1 0-5.34 0 2.67 2.67 0 0 0 5.34 0zm2.56-4.27a.96.96 0 1 1-1.92 0 .96.96 0 0 1 1.92 0z"/></defs><g><g transform="translate(-1529 -42)"><use fill="#77797c" xlink:href="#rysla"/></g></g></svg>