<svg xmlns="http://www.w3.org/2000/svg" xmlns:xlink="http://www.w3.org/1999/xlink" width="18" height="16" viewBox="0 0 18 16"><defs><path id="7x6ca" d="M877.31 9013.74l17.02-6.7c.37-.15.74.17.66.56l-3.05 15a.49.49 0 0 1-.77.3l-4.17-3.09a.68.68 0 0 0-.84.03l-2.31 1.92a.48.48 0 0 1-.78-.24l-1.6-5.27-4.15-1.58a.5.5 0 0 1 0-.93zm5.15 2.6l.87 3.15c.06.23.38.2.41-.03l.23-1.72c.04-.33.2-.62.43-.85l6.69-6.35c.12-.12-.03-.32-.17-.23l-8.1 5.1a.84.84 0 0 0-.36.94z"/></defs><g><g transform="translate(-877 -9007)"><use fill="#77797c" xlink:href="#7x6ca"/></g></g></svg>