<svg xmlns="http://www.w3.org/2000/svg" xmlns:xlink="http://www.w3.org/1999/xlink" width="23" height="13" viewBox="0 0 23 13"><defs><path id="f0rna" d="M899.88 9054.74a11.79 11.79 0 0 0-2.37-2.77l-.02-.02-.01-.02h-.02c-.52-.49-.84-.81-.98-.98-.25-.32-.3-.64-.17-.96.1-.25.46-.76 1.08-1.56l.78-1c1.38-1.82 1.98-2.99 1.8-3.5l-.07-.11c-.05-.07-.18-.14-.38-.2a1.9 1.9 0 0 0-.76-.03l-3.45.03a.43.43 0 0 0-.24 0l-.16.04-.06.03-.04.03a.53.53 0 0 0-.14.13.83.83 0 0 0-.11.2 19.3 19.3 0 0 1-2.1 3.95 6.1 6.1 0 0 1-1.08 1.2c-.13.1-.24.15-.3.14a6.45 6.45 0 0 1-.21-.05.79.79 0 0 1-.27-.3 1.3 1.3 0 0 1-.14-.45 5.15 5.15 0 0 1-.04-1.05l.02-.5.01-.98.03-.84.02-.65c0-.23-.02-.41-.05-.54a1.83 1.83 0 0 0-.12-.38.64.64 0 0 0-.25-.29 1.4 1.4 0 0 0-.4-.16c-.42-.1-.96-.14-1.61-.15-1.49-.02-2.44.08-2.87.28-.16.1-.32.21-.45.36-.15.17-.17.27-.06.29.48.07.82.24 1.02.5l.07.15c.05.1.11.28.17.54a9.15 9.15 0 0 1-.17 3.87c-.07.14-.12.23-.15.26a.2.2 0 0 1-.06.06.9.9 0 0 1-.32.06.77.77 0 0 1-.4-.16 2.88 2.88 0 0 1-.5-.46 6.1 6.1 0 0 1-.58-.81c-.22-.35-.44-.76-.67-1.24l-.2-.34a29.4 29.4 0 0 1-1.04-2.2.78.78 0 0 0-.28-.38l-.06-.03a1.25 1.25 0 0 0-.47-.18l-3.28.02c-.34 0-.56.08-.68.23l-.05.07a.38.38 0 0 0-.04.19c0 .09.03.2.07.32a39.07 39.07 0 0 0 4.3 7.52 26.2 26.2 0 0 0 1.19 1.44l.3.28c.19.2.47.42.84.69.37.26.78.52 1.23.78a6.73 6.73 0 0 0 3.33.82h1.37c.28-.02.5-.1.64-.26l.05-.06a1.2 1.2 0 0 0 .13-.55c-.01-.33.02-.64.08-.91.05-.27.12-.48.2-.62a1.52 1.52 0 0 1 .46-.52.65.65 0 0 1 .1-.04c.19-.07.41 0 .67.18.26.19.5.42.73.69.23.27.5.58.82.92.32.34.6.6.84.76l.24.14c.16.1.37.18.62.26.26.08.48.1.67.06l3.07-.05c.3 0 .54-.04.7-.14.17-.1.27-.21.3-.33a.92.92 0 0 0 .01-.4 1.44 1.44 0 0 0-.08-.32z"/></defs><g><g transform="translate(-877 -9043)"><use fill="#77797c" xlink:href="#f0rna"/></g></g></svg>