<svg xmlns="http://www.w3.org/2000/svg" xmlns:xlink="http://www.w3.org/1999/xlink" width="20" height="16" viewBox="0 0 20 16"><defs><path id="i3s2a" d="M887 8971s3.04 0 6.4.23c.47.05 1.5.06 2.4.96.73.7.96 2.26.96 2.26s.24 1.84.24 3.68v1.73c0 1.84-.24 3.68-.24 3.68s-.23 1.57-.95 2.26c-.92.9-1.94.9-2.4.96-3.37.23-6.41.24-6.41.24s-4.24-.05-6.16-.23c-.53-.1-1.73-.06-2.65-.97-.72-.7-.95-2.26-.95-2.26s-.24-1.84-.24-3.68v-1.73c0-1.84.24-3.68.24-3.68s.23-1.57.95-2.26c.92-.9 1.94-.9 2.4-.96 3.37-.23 6.4-.23 6.4-.23h.02m-2.52 11.15l6.38-3.26-6.38-3.14z"/></defs><g><g transform="translate(-877 -8971)"><use fill="#77797c" xlink:href="#i3s2a"/></g></g></svg>